<svg xmlns="http://www.w3.org/2000/svg" version="1.1" xmlns:xlink="http://www.w3.org/1999/xlink" xmlns:svgjs="http://svgjs.dev/svgjs" width="100%" height="100%" viewBox="0 0 1000 600"><rect width="1000" height="600" x="0" y="0" fill="#df678c"/><g><rect width="333.3333333333333" height="333.3333333333333" rx="13.333333333333334" ry="13.333333333333334" y="185.61120128896087" fill="#3d155f" transform="matrix(0.7650454899485051,0,0,0.7650454899485051,0,30.4914017910736)" x="163.38897705078125"/><path d="M345.76549394546635 427.277883495586L314.3845770212311 427.277883495586Q273.46137880730265 427.277883495586 273.46137880730265 386.35468528165757L273.46137880730265 386.35468528165757L273.46137880730265 318.1622848455568Q273.46137880730265 277.27787639296855 314.3845770212311 277.27787639296855L314.3845770212311 277.27787639296855L345.76549394546635 277.27787639296855Q386.64990239805456 277.27787639296855 386.64990239805456 318.1622848455568L386.64990239805456 318.1622848455568L386.64990239805456 325.41597021617736L360.7383418227899 337.6735347996858L359.38070017588234 337.6735347996858L359.38070017588234 318.1622848455568Q359.38070017588234 301.83179532132567 345.76549394546635 301.83179532132567L345.76549394546635 301.83179532132567L314.3845770212311 301.83179532132567Q300.7305810294749 301.83179532132567 300.7305810294749 318.1622848455568L300.7305810294749 318.1622848455568L300.7305810294749 386.35468528165757Q300.7305810294749 402.72396456722896 314.3845770212311 402.72396456722896L314.3845770212311 402.72396456722896L345.76549394546635 402.72396456722896Q359.38070017588234 402.72396456722896 359.38070017588234 386.35468528165757L359.38070017588234 386.35468528165757L359.38070017588234 379.1397896723773L385.292260751147 366.88222508886884L386.64990239805456 366.88222508886884L386.64990239805456 386.35468528165757Q386.64990239805456 427.277883495586 345.76549394546635 427.277883495586L345.76549394546635 427.277883495586Z " fill="#df678c" transform="matrix(0.7650454899485051,0,0,0.7650454899485051,0,30.4914017910736)"/><path d="M642.3096669766937 423.4943305248647L613.0878430874087 423.4943305248647Q580.055643631293 423.4943305248647 580.055643631293 390.4889646995014L580.055643631293 390.4889646995014L580.055643631293 314.0667843168716Q580.055643631293 281.03458486075596 613.0878430874087 281.03458486075596L613.0878430874087 281.03458486075596L642.3096669766937 281.03458486075596Q675.3418664328094 281.03458486075596 675.3418664328094 314.0667843168716L675.3418664328094 314.0667843168716L675.3418664328094 324.4513994180225L657.4170010902544 332.9308267357581L656.4778240139228 332.9308267357581L656.4778240139228 314.0667843168716Q656.4778240139228 298.02027312697953 642.3096669766937 298.02027312697953L642.3096669766937 298.02027312697953L613.0878430874087 298.02027312697953Q598.9196860501795 298.02027312697953 598.9196860501795 314.0667843168716L598.9196860501795 314.0667843168716L598.9196860501795 390.4889646995014Q598.9196860501795 406.50864225864115 613.0878430874087 406.50864225864115L613.0878430874087 406.50864225864115L642.3096669766937 406.50864225864115Q656.4778240139228 406.50864225864115 656.4778240139228 390.4889646995014L656.4778240139228 390.4889646995014L656.4778240139228 380.1043495983505L674.4026893564778 371.5980886498626L675.3418664328094 371.5980886498626L675.3418664328094 390.4889646995014Q675.3418664328094 423.4943305248647 642.3096669766937 423.4943305248647L642.3096669766937 423.4943305248647ZM714.0091283469139 427.27787246094294L713.0699512705824 427.27787246094294L713.0699512705824 285.75730387316565L730.9948166131375 277.27787655543005L731.9339936894689 277.27787655543005L731.9339936894689 418.771611512455L714.0091283469139 427.27787246094294ZM793.2488399585382 406.50864225864115L793.2488399585382 406.50864225864115L814.9572472371714 406.50864225864115Q824.4026852619908 406.50864225864115 824.4026852619908 395.1848500811588L824.4026852619908 395.1848500811588L824.4026852619908 348.01132721856635Q824.4026852619908 336.7143686718363 814.9572472371714 336.7143686718363L814.9572472371714 336.7143686718363L793.2488399585382 336.7143686718363Q783.8302355644711 336.7143686718363 783.8302355644711 348.01132721856635L783.8302355644711 348.01132721856635L783.8302355644711 395.1848500811588Q783.8302355644711 406.50864225864115 793.2488399585382 406.50864225864115ZM814.9572472371714 423.4943305248647L793.2488399585382 423.4943305248647Q764.9661931455845 423.4943305248647 764.9661931455845 395.1848500811588L764.9661931455845 395.1848500811588L764.9661931455845 348.01132721856635Q764.9661931455845 319.72868040561275 793.2488399585382 319.72868040561275L793.2488399585382 319.72868040561275L814.9572472371714 319.72868040561275Q843.2667276808772 319.72868040561275 843.2667276808772 348.01132721856635L843.2667276808772 348.01132721856635L843.2667276808772 395.1848500811588Q843.2667276808772 423.4943305248647 814.9572472371714 423.4943305248647L814.9572472371714 423.4943305248647ZM877.2112705825721 427.27787246094294L876.2720935062406 427.27787246094294L876.2720935062406 346.3208084811697L862.1307700997638 346.3208084811697L862.1307700997638 345.38163140483823L869.7783548641773 329.1472847996799L876.2720935062406 329.1472847996799L876.2720935062406 309.3440653044619Q876.2720935062406 281.03458486075596 904.5815739499466 281.03458486075596L904.5815739499466 281.03458486075596L928.1683353812427 281.03458486075596L928.1683353812427 282.00059556783975L920.6280851398385 298.02027312697953L904.5815739499466 298.02027312697953Q895.1361359251271 298.02027312697953 895.1361359251271 309.3440653044619L895.1361359251271 309.3440653044619L895.1361359251271 329.1472847996799L926.3704821208368 329.1472847996799L926.3704821208368 330.1132955067637L918.7228973564233 346.3208084811697L895.1361359251271 346.3208084811697L895.1361359251271 418.771611512455L877.2112705825721 427.27787246094294ZM962.1128782829376 427.27787246094294L961.173701206606 427.27787246094294L961.173701206606 285.75730387316565L979.0985665491611 277.27787655543005L980.0377436254926 277.27787655543005L980.0377436254926 418.771611512455L962.1128782829376 427.27787246094294ZM1019.1880108931389 298.87894931105404Q1015.8874743106026 295.4710782055084 1015.8874743106026 290.7215255623463Q1015.8874743106026 285.94513928843196 1019.1880108931389 282.5641018136387Q1022.4885474756752 279.156230708093 1027.211266488085 279.156230708093Q1031.9339855004946 279.156230708093 1035.234522083031 282.5641018136387Q1038.5350586655672 285.94513928843196 1038.5350586655672 290.7215255623463Q1038.5350586655672 295.4710782055084 1035.234522083031 298.87894931105404Q1031.9339855004946 302.25998678584733 1027.211266488085 302.25998678584733Q1022.4885474756752 302.25998678584733 1019.1880108931389 298.87894931105404ZM1018.7318391703493 427.27787246094294L1017.7926620940179 427.27787246094294L1017.7926620940179 324.4513994180225L1035.717527436573 315.9451384695345L1036.6567045129045 315.9451384695345L1036.6567045129045 418.771611512455L1018.7318391703493 427.27787246094294ZM1103.4456114554487 386.89325817868945L1080.4223562699513 427.27787246094294L1079.4831791936197 427.27787246094294L1063.0609971731951 419.5229531735202L1092.3096546932325 371.5980886498626L1063.0609971731951 323.7805586492143L1079.5636800858767 315.9451384695345L1080.5296907929605 315.9451384695345L1103.4456114554487 356.2224182287787L1126.2810312256795 315.9451384695345L1127.220208302011 315.9451384695345L1143.7228912146925 323.7805586492143L1114.4742336946551 371.5980886498626L1143.7228912146925 419.5229531735202L1127.300709194268 427.27787246094294L1126.3615321179366 427.27787246094294L1103.4456114554487 386.89325817868945Z " fill="#3d155f" transform="matrix(0.7650454899485051,0,0,0.7650454899485051,0,30.4914017910736)"/></g></svg>