<svg xmlns="http://www.w3.org/2000/svg" version="1.1" xmlns:xlink="http://www.w3.org/1999/xlink" xmlns:svgjs="http://svgjs.dev/svgjs" width="100%" height="100%" viewBox="0 0 1000 600"><rect width="1000" height="600" x="0" y="0" fill="#ff7b9c"/><g><circle r="166.66666666666666" cx="344.93920389811194" cy="367.16138169382737" fill="#404b64" transform="matrix(0.7011739557454697,0,0,0.7011739557454697,0,42.5560226609891)"/><path d="M348.563635342652 442.1613773887752Q318.36957220462375 442.1613773887752 299.56249507044544 422.2983642091271Q280.7268791242275 402.435351029479 280.7268791242275 367.21845697245925Q280.7268791242275 332.0015629154396 299.4483398222866 312.0814721117121Q318.1698005203457 292.1613813079846 347.4506216731027 292.1613813079846L347.4506216731027 292.1613813079846Q372.7360091402984 292.1613813079846 388.48943338622615 303.06320750715923Q404.24285763215397 313.9364948942942 408.15267488159617 333.79950807394226L408.15267488159617 333.79950807394226Q408.5522182501523 336.3109235334379 406.0408027906566 336.3109235334379L406.0408027906566 336.3109235334379L393.1127209366615 336.3109235334379Q391.3147757781589 336.3109235334379 390.7154607253247 334.3132066906573L390.7154607253247 334.3132066906573Q382.06820067728825 306.602020200085 347.4506216731027 306.51640376396585L347.4506216731027 306.51640376396585Q326.70290532022324 306.51640376396585 312.94719791707615 321.8132070172581Q299.19149051392907 337.1100102705503 299.19149051392907 367.10430172430046Q299.19149051392907 397.0985931780505 313.08989197727476 412.42393524338246Q326.98829344062045 427.72073849667464 348.563635342652 427.72073849667464L348.563635342652 427.72073849667464Q383.06705909867856 427.72073849667464 391.714319146715 400.0095520061024L391.714319146715 400.0095520061024Q392.31363419954926 398.0118351633218 394.11157935805187 397.92621872720264L394.11157935805187 397.92621872720264L407.0682000240867 397.92621872720264Q409.1515333029865 397.92621872720264 409.1515333029865 399.7241638857052L409.1515333029865 399.7241638857052Q409.1515333029865 408.6568120541389 403.2439992107636 417.1899168540164L403.2439992107636 417.1899168540164Q386.09217317488935 442.1613773887752 348.563635342652 442.1613773887752L348.563635342652 442.1613773887752Z " fill="#ff7b9c" transform="matrix(0.7011739557454697,0,0,0.7011739557454697,0,42.5560226609891)"/><path d="M662.7759613924566 442.1613773887752Q632.5818982544283 442.1613773887752 613.7748211202501 422.2983642091271Q594.939205174032 402.435351029479 594.939205174032 367.21845697245925Q594.939205174032 332.0015629154396 613.660665872091 312.0814721117121Q632.3821265701503 292.1613813079846 661.6629477229072 292.1613813079846L661.6629477229072 292.1613813079846Q686.948335190103 292.1613813079846 702.7017594360308 303.06320750715923Q718.4551836819585 313.9364948942942 722.3650009314008 333.79950807394226L722.3650009314008 333.79950807394226Q722.7645442999569 336.3109235334379 720.2531288404612 336.3109235334379L720.2531288404612 336.3109235334379L707.3250469864661 336.3109235334379Q705.5271018279634 336.3109235334379 704.9277867751292 334.3132066906573L704.9277867751292 334.3132066906573Q696.2805267270928 306.602020200085 661.6629477229072 306.51640376396585L661.6629477229072 306.51640376396585Q640.9152313700278 306.51640376396585 627.1595239668807 321.8132070172581Q613.4038165637336 337.1100102705503 613.4038165637336 367.10430172430046Q613.4038165637336 397.0985931780505 627.3022180270793 412.42393524338246Q641.2006194904251 427.72073849667464 662.7759613924566 427.72073849667464L662.7759613924566 427.72073849667464Q697.2793851484831 427.72073849667464 705.9266451965195 400.0095520061024L705.9266451965195 400.0095520061024Q706.5259602493538 398.0118351633218 708.3239054078564 397.92621872720264L708.3239054078564 397.92621872720264L721.2805260738912 397.92621872720264Q723.3638593527911 397.92621872720264 723.3638593527911 399.7241638857052L723.3638593527911 399.7241638857052Q723.3638593527911 408.6568120541389 717.4563252605682 417.1899168540164L717.4563252605682 417.1899168540164Q700.3044992246939 442.1613773887752 662.7759613924566 442.1613773887752L662.7759613924566 442.1613773887752ZM754.3855480399714 437.0529300336645L754.3855480399714 437.0529300336645L754.3855480399714 297.2698286630952Q754.3855480399714 295.1864953841954 756.383264882752 295.1864953841954L756.383264882752 295.1864953841954L770.8239037748525 295.1864953841954Q772.8501594296729 295.1864953841954 772.8501594296729 297.2698286630952L772.8501594296729 297.2698286630952L772.8501594296729 437.0529300336645Q772.8501594296729 439.0506468764452 770.8239037748525 439.0506468764452L770.8239037748525 439.0506468764452L756.383264882752 439.0506468764452Q754.3855480399714 439.0506468764452 754.3855480399714 437.0529300336645ZM859.1800658498387 442.1613773887752Q835.150386112391 442.1613773887752 820.452897911933 427.06434581976106Q805.755409711475 411.96731425074694 805.755409711475 383.913662015698Q805.755409711475 355.8885485926888 820.452897911933 340.96274989591296Q835.150386112391 326.0654900111769 859.1800658498387 326.0654900111769Q883.2097455872865 326.0654900111769 897.9072337877445 340.96274989591296Q912.6047219882025 355.8885485926888 912.6047219882025 383.913662015698Q912.6047219882025 411.96731425074694 897.9072337877445 427.06434581976106Q883.2097455872865 442.1613773887752 859.1800658498387 442.1613773887752ZM859.1800658498387 340.4205124671583Q843.5693356641095 340.4205124671583 833.8946783826431 351.3223386663329Q824.2200211011765 362.19562605346783 824.2200211011765 383.85658439161847Q824.2200211011765 405.546081541809 833.8946783826431 416.619140613222Q843.5693356641095 427.72073849667464 859.1800658498387 427.72073849667464Q874.7907960355678 427.72073849667464 884.4654533170344 416.619140613222Q894.1401105985009 405.546081541809 894.1401105985009 383.85658439161847Q894.1401105985009 362.19562605346783 884.4654533170344 351.3223386663329Q874.7907960355678 340.4205124671583 859.1800658498387 340.4205124671583ZM943.3981001790651 437.0529300336645L943.3981001790651 437.0529300336645L943.3981001790651 337.30978195482834Q943.3981001790651 316.73329847418717 955.7554057922656 304.4616092971057Q968.0841725934264 292.1613813079846 990.6583729168483 292.1613813079846L990.6583729168483 292.1613813079846Q1007.1252674637692 292.1613813079846 1017.4563174221494 297.0700569788171L1017.4563174221494 297.0700569788171Q1019.45403426493 298.0974542122472 1019.45403426493 299.69562768647177L1019.45403426493 299.69562768647177L1019.45403426493 309.82690596057387Q1019.45403426493 312.3383214200696 1017.4563174221494 311.4250794347985L1017.4563174221494 311.4250794347985Q1007.2108838998884 306.51640376396585 992.7702450077879 306.51640376396585L992.7702450077879 306.51640376396585Q961.9768668169254 306.51640376396585 961.9768668169254 337.30978195482834L961.9768668169254 337.30978195482834L961.9768668169254 344.53010140087855L1003.8147652671612 344.53010140087855Q1005.8124821099418 344.53010140087855 1005.8980985460611 346.5563570556989L1005.8980985460611 346.5563570556989L1005.8980985460611 356.8874070140791Q1005.8980985460611 358.8851238568598 1003.8147652671612 358.8851238568598L1003.8147652671612 358.8851238568598L961.9768668169254 358.8851238568598L961.9768668169254 437.0529300336645Q961.9768668169254 439.0506468764452 959.8649947259859 439.0506468764452L959.8649947259859 439.0506468764452L945.5099722700046 439.0506468764452Q943.3981001790651 439.0506468764452 943.3981001790651 437.0529300336645ZM1040.0305177455712 437.0529300336645L1040.0305177455712 437.0529300336645L1040.0305177455712 297.2698286630952Q1040.0305177455712 295.1864953841954 1042.028234588352 295.1864953841954L1042.028234588352 295.1864953841954L1056.4688734804527 295.1864953841954Q1058.4951291352727 295.1864953841954 1058.4951291352727 297.2698286630952L1058.4951291352727 297.2698286630952L1058.4951291352727 437.0529300336645Q1058.4951291352727 439.0506468764452 1056.4688734804527 439.0506468764452L1056.4688734804527 439.0506468764452L1042.028234588352 439.0506468764452Q1040.0305177455712 439.0506468764452 1040.0305177455712 437.0529300336645ZM1097.507685193576 312.6237095404669L1097.507685193576 299.29608431791564Q1097.507685193576 295.1864953841954 1101.6172741272962 295.1864953841954L1101.6172741272962 295.1864953841954L1114.9734381618873 295.1864953841954Q1117.2850819371047 295.1864953841954 1118.1697851103363 296.12827618150624Q1119.0830270956076 297.0700569788171 1119.0830270956076 299.29608431791564L1119.0830270956076 299.29608431791564L1119.0830270956076 312.6237095404669Q1119.0830270956076 314.9353533156845 1118.1697851103363 315.84859530095565Q1117.2850819371047 316.73329847418717 1114.9734381618873 316.73329847418717L1114.9734381618873 316.73329847418717L1101.6172741272962 316.73329847418717Q1099.4197856002374 316.73329847418717 1098.4780048029265 315.84859530095565Q1097.507685193576 314.9353533156845 1097.507685193576 312.6237095404669L1097.507685193576 312.6237095404669ZM1099.020242231681 437.0529300336645L1099.020242231681 437.0529300336645L1099.020242231681 331.20247617832734Q1099.020242231681 329.0906040873877 1101.017959074462 329.0906040873877L1101.017959074462 329.0906040873877L1115.3729815304432 329.0906040873877Q1117.484853621383 329.0906040873877 1117.484853621383 331.20247617832734L1117.484853621383 331.20247617832734L1117.484853621383 437.0529300336645Q1117.484853621383 439.0506468764452 1115.3729815304432 439.0506468764452L1115.3729815304432 439.0506468764452L1101.017959074462 439.0506468764452Q1099.020242231681 439.0506468764452 1099.020242231681 437.0529300336645ZM1160.6355374254458 439.0506468764452L1145.8809716009087 439.0506468764452Q1144.254259314644 439.0506468764452 1144.054487630366 438.19448251525347Q1143.8547159460882 437.3383181540617 1144.254259314644 437.0529300336645L1144.254259314644 437.0529300336645L1185.4928427120458 384.17051132405544L1144.254259314644 331.20247617832734Q1143.9688711942472 330.8885492458904 1143.8547159460882 330.48900587733425L1143.8547159460882 330.48900587733425Q1143.8547159460882 329.0906040873877 1145.8809716009087 329.0906040873877L1145.8809716009087 329.0906040873877L1160.6355374254458 329.0906040873877Q1163.118414072902 329.0906040873877 1164.745126359166 331.20247617832734L1164.745126359166 331.20247617832734L1195.8524314824658 371.01411897374265L1227.045353041884 331.20247617832734Q1228.643526516109 329.17622052350686 1231.1549419756047 329.0906040873877L1231.1549419756047 329.0906040873877L1245.909507800142 329.0906040873877Q1247.9072246429228 329.0906040873877 1247.9072246429228 330.48900587733425L1247.9072246429228 330.48900587733425Q1247.9072246429228 330.8885492458904 1247.6218365225254 331.20247617832734L1247.6218365225254 331.20247617832734L1206.0693261926867 384.17051132405544L1247.6218365225254 437.0529300336645Q1247.9072246429228 437.3383181540617 1247.9072246429228 437.73786152261783L1247.9072246429228 437.73786152261783Q1247.9072246429228 439.0506468764452 1245.909507800142 439.0506468764452L1245.909507800142 439.0506468764452L1231.1549419756047 439.0506468764452Q1228.643526516109 439.0506468764452 1227.045353041884 437.0529300336645L1227.045353041884 437.0529300336645L1195.8524314824658 397.2983648623287L1164.745126359166 437.0529300336645Q1163.118414072902 439.0506468764452 1160.6355374254458 439.0506468764452L1160.6355374254458 439.0506468764452Z " fill="#404b64" transform="matrix(0.7011739557454697,0,0,0.7011739557454697,0,42.5560226609891)"/></g></svg>